<svg xmlns="http://www.w3.org/2000/svg" width="192" height="192" viewBox="0 0 192 192">
  <rect width="192" height="192" rx="32" fill="#006B3E"/>
  <g transform="translate(96,96)">
    <!-- Leaf icon -->
    <path d="M-20,-40 C-20,-40 0,-50 20,-40 C40,-30 40,-10 30,10 C20,30 0,40 0,40 C0,40 -10,20 -15,0 C-20,-20 -20,-40 -20,-40 Z" fill="white" opacity="0.95"/>
    <path d="M0,40 C0,40 -5,10 5,-15" stroke="white" stroke-width="2.5" fill="none" opacity="0.6"/>
    <path d="M-5,20 C-5,20 0,5 10,-5" stroke="white" stroke-width="1.5" fill="none" opacity="0.4"/>
    <path d="M-10,5 C-10,5 -5,-5 5,-15" stroke="white" stroke-width="1.5" fill="none" opacity="0.4"/>
  </g>
  <!-- ES text -->
  <text x="96" y="155" text-anchor="middle" font-family="Arial,sans-serif" font-size="28" font-weight="800" fill="white" opacity="0.9">ES</text>
</svg>
